<svg width="19" height="11" viewBox="0 0 19 11" fill="none" xmlns="http://www.w3.org/2000/svg">
<path d="M7.94114 10.5563C8.08058 10.6969 8.24648 10.8085 8.42927 10.8846C8.61206 10.9608 8.80812 11 9.00614 11C9.20416 11 9.40021 10.9608 9.583 10.8846C9.76579 10.8085 9.93169 10.6969 10.0711 10.5563L17.5711 3.05631C17.8536 2.77385 18.0123 2.39076 18.0123 1.99131C18.0123 1.59185 17.8536 1.20876 17.5711 0.926306C17.2887 0.64385 16.9056 0.485168 16.5061 0.485168C16.1067 0.485168 15.7236 0.64385 15.4411 0.926306L9.00614 7.37631L2.57114 0.926306C2.28868 0.64385 1.90559 0.485168 1.50614 0.485168C1.10669 0.485168 0.723593 0.64385 0.441138 0.926306C0.158682 1.20876 0 1.59185 0 1.99131C0 2.39076 0.158682 2.77385 0.441138 3.05631L7.94114 10.5563Z" fill="white"/>
</svg>
