<svg width="14" height="12" viewBox="0 0 14 12" fill="none" xmlns="http://www.w3.org/2000/svg">
<path d="M5.20832 11.2292C4.80207 11.2292 4.87499 11.073 4.72916 10.6876L3.54166 6.77091L10.9167 2.16675L11.7812 2.39591L11.0625 4.35425L5.20832 11.2292Z" fill="#C8DAEA"/>
<path d="M5.20832 11.2292C5.52082 11.2292 5.65626 11.0833 5.83334 10.9167C6.10418 10.6562 9.58334 7.27083 9.58334 7.27083L7.44793 6.75L5.46876 8L5.20834 11.125L5.20832 11.2292Z" fill="#A9C9DD"/>
<path d="M5.41666 8.04155L10.4583 11.7603C11.0312 12.0728 11.4479 11.9166 11.5937 11.2291L13.6458 1.56238C13.8542 0.718633 13.3229 0.343633 12.7708 0.593633L0.729163 5.23947C-0.0937534 5.5728 -0.0833369 6.03113 0.58333 6.22905L3.67708 7.1978L10.8333 2.68738C11.1667 2.47905 11.4792 2.59363 11.2292 2.8228L5.41666 8.04155Z" fill="white"/>
</svg>
